HIERARCHY
ROOT Root
{
	OFFSET 0.00000 0.00000 0.00000
	CHANNELS 6 Xposition Yposition Zposition Zrotation Xrotation Yrotation
	JOINT Hips
	{
		OFFSET 0 0 0	
		CHANNELS 3 Zrotation Xrotation Yrotation
		JOINT Spine
		{
			OFFSET 0 4 0	
			CHANNELS 3 Zrotation Xrotation Yrotation
			JOINT Spine1
			{
				OFFSET 0 19.4 0	
				CHANNELS 3 Zrotation Xrotation Yrotation
				JOINT Spine2
				{
					OFFSET 0 16.6 0	
					CHANNELS 3 Zrotation Xrotation Yrotation
					JOINT LeftCollar
					{
						OFFSET 0 10 0	
						CHANNELS 3 Zrotation Xrotation Yrotation
						JOINT LeftArm
						{
							OFFSET 15.6 -2 3	
							CHANNELS 3 Zrotation Xrotation Yrotation
							JOINT LeftForeArm
							{
								OFFSET 3.5 -27 -1	
								CHANNELS 3 Zrotation Xrotation Yrotation
								JOINT LeftHand
								{
									OFFSET 1 -27 1	
									CHANNELS 3 Zrotation Xrotation Yrotation
									End Site
									{
										OFFSET 0 -15 0
									}
								}
							}
						}
					}
					JOINT RightCollar
					{
						OFFSET 0 10 0	
						CHANNELS 3 Zrotation Xrotation Yrotation
						JOINT RightArm
						{
							OFFSET -15.6 -2 3	
							CHANNELS 3 Zrotation Xrotation Yrotation
							JOINT RightForeArm
							{
								OFFSET -3.5 -27 -1	
								CHANNELS 3 Zrotation Xrotation Yrotation
								JOINT RightHand
								{
									OFFSET -1 -27 1	
									CHANNELS 3 Zrotation Xrotation Yrotation
									End Site
									{
										OFFSET 0 -15 0
									}
								}
							}
						}
					}
					JOINT Neck
					{
						OFFSET 0 10 0	
						CHANNELS 3 Zrotation Xrotation Yrotation
						JOINT Head
						{
							OFFSET 0 12.7 3	
							CHANNELS 3 Zrotation Xrotation Yrotation
							End Site
							{
								OFFSET 0 12.7 3
							}
						}
					}
				}
			}
		}
	}
	JOINT LeftHip
	{
		OFFSET 0 0 0	
		CHANNELS 3 Zrotation Xrotation Yrotation
		JOINT LeftUpLeg
		{
			OFFSET 8.8 -6 0	
			CHANNELS 3 Zrotation Xrotation Yrotation
			JOINT LeftLeg
			{
				OFFSET 0 -39 2	
				CHANNELS 3 Zrotation Xrotation Yrotation
				JOINT LeftFoot
				{
					OFFSET 0 -43 -2	
					CHANNELS 3 Zrotation Xrotation Yrotation
					JOINT LeftFootFront
					{
						OFFSET 0 -7 8.5	
						CHANNELS 3 Zrotation Xrotation Yrotation
						End Site
						{
							OFFSET 0 -0.5 9
						}
					}
				}
				JOINT LeftHeel
				{
					OFFSET 0 -43 -2	
					CHANNELS 3 Zrotation Xrotation Yrotation
					End Site
					{
						OFFSET 0 -7.5 -5
					}
				}
			}
		}
	}
	JOINT RightHip
	{
		OFFSET 0 0 0	
		CHANNELS 3 Zrotation Xrotation Yrotation
		JOINT RightUpLeg
		{
			OFFSET -8.8 -6 0	
			CHANNELS 3 Zrotation Xrotation Yrotation
			JOINT RightLeg
			{
				OFFSET 0 -39 2	
				CHANNELS 3 Zrotation Xrotation Yrotation
				JOINT RightFoot
				{
					OFFSET 0 -43 -2	
					CHANNELS 3 Zrotation Xrotation Yrotation
					JOINT RightFootFront
					{
						OFFSET 0 -7 8.5	
						CHANNELS 3 Zrotation Xrotation Yrotation
						End Site
						{
							OFFSET 0 -0.5 9
						}
					}
				}
				JOINT RightHeel
				{
					OFFSET 0 -43 -2	
					CHANNELS 3 Zrotation Xrotation Yrotation
					End Site
					{
						OFFSET 0 -7.5 -5
					}
				}
			}
		}
	}
}
MOTION
Frames: 22
Frame Time: 0.05
0 97.074 0 -0 0 -0 -10.7 -3.9716 1.2776 0.32288 1.483 -1.8673 0.32288 1.483 -1.8673 0.26797 1.2464 -1.5679 -0 0 -0 -1.1246 -0.96276 -0.19102 3.3631 4.7552 2.3057 2.3523 -1.5401 2.7113 -0 0 -0 6.8569 -0.12602 2.452 0.87166 -0.28751 -0.3432 0.25284 -3.544 0.34793 -0.39429 2.4532 -1.6761 -0.05939 3.7095 -3.2383 -10.7 -3.9716 1.2776 7.5308 2.4478 2.23 -2.3746 3.8955 -10.336 -0 0 -0 0 0 -2.668e-08 -0 0 -0 -10.7 -3.9716 1.2776 8.2475 6.5379 -0.38509 -2.5186 2.4204 17.404 -0 0 -0 -0 0 4.5357e-07 -0 0 -0 
0 97.053 0 -0 0 -0 -10.382 -3.9031 1.1902 0.17016 1.2621 -1.8223 0.17016 1.2621 -1.8223 0.14023 1.0606 -1.5304 -0 0 -0 -1.097 -0.49904 -0.16601 3.3891 4.8563 2.2141 2.4223 -1.668 2.7822 -0 0 -0 6.9353 0.40289 2.4145 0.88853 -0.24961 -0.33693 0.23227 -3.5563 0.28874 -0.32276 2.8068 -1.6829 -0.10766 3.8749 -3.2105 -10.382 -3.9031 1.1902 7.2195 2.311 2.3963 -2.3623 3.9553 -10.395 -0 0 -0 -0 0 1.8009e-07 -0 0 -0 -10.382 -3.9031 1.1902 7.9094 6.461 -0.22885 -2.5112 2.4653 17.404 -0 0 -0 0 0 -4.5357e-07 -0 0 -0 
0 97.026 0 -0 0 -0 -10.025 -3.7938 1.0804 0.0064174 1.0601 -1.7554 0.0064191 1.06 -1.7554 0.003209 0.89046 -1.4745 -0 0 -0 -1.031 -0.13075 -0.16745 3.3675 4.934 2.132 2.4734 -1.7638 2.8134 -0 0 -0 6.9613 0.83749 2.3524 0.92445 -0.14105 -0.30742 0.226 -3.5229 0.3005 -0.24195 3.0996 -1.7106 -0.15898 3.9952 -3.1848 -10.025 -3.7938 1.0804 6.8052 2.1854 2.6025 -2.2831 3.9657 -10.463 -0 0 -0 0 0 -1.5341e-07 -0 0 -0 -10.025 -3.7938 1.0804 7.5556 6.2797 -0.045508 -2.5222 2.5614 17.399 -0 0 -0 -0 0 2.668e-07 -0 0 -0 
0 96.995 0 -0 0 -0 -9.7319 -3.675 0.96253 -0.12827 0.79796 -1.6903 -0.12827 0.79796 -1.6903 -0.10933 0.67004 -1.42 -0 0 -0 -0.95632 0.42337 -0.16162 3.3086 4.9226 2.0131 2.5489 -1.6907 2.9015 -0 0 -0 7.0114 1.4792 2.2895 0.8964 -0.16347 -0.31483 0.26746 -3.5216 0.22698 -0.17722 3.4805 -1.7233 -0.20021 4.1539 -3.1448 -9.7319 -3.675 0.96253 6.517 2.077 2.8076 -2.2744 3.9576 -10.522 -0 0 -0 -0 0 1.8676e-07 -0 0 -0 -9.7319 -3.675 0.96253 7.2478 6.0943 0.13297 -2.5022 2.6323 17.387 -0 0 -0 0 0 -1.8676e-07 -0 0 -0 
0 96.961 0 -0 0 -0 -9.4656 -3.5451 0.85226 -0.26845 0.58973 -1.6054 -0.26845 0.58973 -1.6054 -0.22661 0.49488 -1.3487 -0 0 -0 -0.85531 0.81859 -0.23697 3.3367 4.8859 1.9565 2.5256 -1.686 2.9107 -0 0 -0 7.129 1.8753 2.1607 0.80968 -0.12262 -0.31392 0.31149 -3.4572 0.26921 -0.080654 3.7465 -1.781 -0.21893 4.2422 -3.1327 -9.4656 -3.5451 0.85226 6.2396 1.9493 2.9809 -2.2932 4.0183 -10.551 -0 0 -0 0 0 -2.001e-08 -0 0 -0 -9.4656 -3.5451 0.85226 7.0103 5.9171 0.26027 -2.5295 2.722 17.426 -0 0 -0 0 0 -2.2678e-07 -0 0 -0 
0 96.926 0 -0 0 -0 -9.2439 -3.4362 0.73411 -0.36823 0.4133 -1.5423 -0.36824 0.4133 -1.5423 -0.31007 0.34651 -1.2957 -0 0 -0 -0.81523 1.1514 -0.26136 3.3001 4.8551 1.9676 2.5584 -1.6242 2.8689 -0 0 -0 7.1388 2.1629 2.1297 0.82649 -0.11461 -0.34269 0.20783 -3.4672 0.30231 -0.061344 3.9523 -1.8183 -0.28187 4.2992 -3.1172 -9.2439 -3.4362 0.73411 5.977 1.7632 3.1354 -2.2886 4.1482 -10.553 -0 0 -0 -0 0 1.6675e-07 -0 0 -0 -9.2439 -3.4362 0.73411 6.824 5.8043 0.38131 -2.5722 2.7633 17.471 -0 0 -0 -4.2689e-07 -2.5345e-15 6.8035e-07 -0 0 -0 
0 96.892 0 -0 0 -0 -9.0228 -3.3752 0.62535 -0.48882 0.28941 -1.4577 -0.48882 0.28941 -1.4577 -0.4111 0.24227 -1.2246 -0 0 -0 -0.75326 1.3811 -0.35595 3.3686 4.8279 1.9583 2.6196 -1.5077 2.8651 -0 0 -0 7.193 2.3963 2.0711 0.85681 -0.12087 -0.37206 0.16684 -3.5225 0.25307 0.03557 4.0778 -1.9072 -0.2882 4.3184 -3.1354 -9.0228 -3.3752 0.62535 5.7174 1.6439 3.2774 -2.2657 4.2674 -10.563 -0 0 -0 0 0 -4.0021e-08 -0 0 -0 -9.0228 -3.3752 0.62535 6.6091 5.7411 0.51052 -2.5746 2.7849 17.502 -0 0 -0 -0 0 5.3361e-08 -0 0 -0 
0 96.859 0 -0 0 -0 -8.7946 -3.3009 0.5703 -0.60032 0.11698 -1.4117 -0.60032 0.11698 -1.4117 -0.50446 0.097272 -1.1859 -0 0 -0 -0.71142 1.7889 -0.37563 3.3645 4.7875 1.9312 2.6485 -1.4286 2.8209 -0 0 -0 7.2795 2.7202 2.0188 0.8169 -0.11533 -0.37214 0.13433 -3.5317 0.22853 0.11689 4.3355 -1.9466 -0.29767 4.4294 -3.1363 -8.7946 -3.3009 0.5703 5.4823 1.5693 3.4038 -2.263 4.3218 -10.61 -0 0 -0 1.0358e-10 -0.10468 1.1339e-07 -0 0 -0 -8.7946 -3.3009 0.5703 6.3518 5.6631 0.57431 -2.5723 2.8136 17.596 -0 0 -0 -0 0 1.8676e-07 -0 0 -0 
0 96.826 0 -0 0 -0 -8.5863 -3.2479 0.55872 -0.72302 0.008094 -1.3867 -0.72302 0.0080943 -1.3867 -0.60735 0.0056237 -1.1648 -0 0 -0 -0.55912 1.9895 -0.42919 3.3189 4.8398 1.9692 2.6669 -1.4187 2.7666 -0 0 -0 7.4382 2.8983 2.0099 0.79535 -0.16359 -0.39381 0.12051 -3.4284 0.18244 0.20568 4.4861 -1.9731 -0.31033 4.4866 -3.1416 -8.5863 -3.2479 0.55872 5.3005 1.4665 3.498 -2.2429 4.4035 -10.678 -0 0 -0 4.2629e-07 -0.13848 -4.9307e-07 -0 0 -0 -8.5863 -3.2479 0.55872 6.1642 5.5435 0.5661 -2.618 2.9486 17.77 -0 0 -0 -0 0 3.4685e-07 -0 0 -0 
0 96.794 0 -0 0 -0 -8.3912 -3.2151 0.57588 -0.79361 -0.078579 -1.3732 -0.79361 -0.078579 -1.3732 -0.66651 -0.067285 -1.1534 -0 0 -0 -0.55086 2.1084 -0.47152 3.3423 4.9611 1.9744 2.6941 -1.4847 2.7794 -0 0 -0 7.4156 3.075 2.0262 0.7607 -0.17788 -0.41827 0.11293 -3.4822 0.20324 0.22721 4.569 -1.9915 -0.34721 4.4962 -3.1482 -8.3912 -3.2151 0.57588 5.1354 1.3529 3.5411 -2.3031 4.4373 -10.714 -0 0 -0 -4.2681e-07 -0.081565 1.1309e-07 -0 0 -0 -8.3912 -3.2151 0.57588 6.0069 5.4454 0.55849 -2.7052 3.1524 17.937 -0 0 -0 0 0 -7.4705e-07 -0 0 -0 
0 96.764 0 -0 0 -0 -8.201 -3.1691 0.61098 -0.8638 -0.16562 -1.3619 -0.8638 -0.16562 -1.3619 -0.72533 -0.1405 -1.1438 -0 0 -0 -0.57637 2.1828 -0.47582 3.4022 5.0392 1.8682 2.7115 -1.4916 2.8336 -0 0 -0 7.3863 3.229 2.0155 0.78578 -0.1362 -0.42836 0.10369 -3.481 0.1532 0.25462 4.6597 -2.0066 -0.37762 4.5132 -3.1533 -8.201 -3.1691 0.61098 4.9381 1.166 3.5302 -2.3322 4.5418 -10.708 -0 0 -0 -0 0 9.3381e-08 -0 0 -0 -8.201 -3.1691 0.61098 5.8254 5.3868 0.54382 -2.7805 3.2877 18.043 -0 0 -0 -0 0 7.2037e-07 -0 0 -0 
0 96.739 0 -0 0 -0 -8.0105 -3.1402 0.64307 -0.96056 -0.21785 -1.3312 -0.96056 -0.21785 -1.3312 -0.80654 -0.18449 -1.1179 -0 0 -0 -0.55506 2.1295 -0.4036 3.4783 5.1999 1.7168 2.7396 -1.5885 2.8588 -0 0 -0 7.497 3.268 1.9386 0.80954 -0.079377 -0.40852 0.085791 -3.4463 0.25219 0.32779 4.6753 -2.0491 -0.38749 4.4835 -3.1694 -8.0105 -3.1402 0.64307 4.7438 1.0444 3.547 -2.3649 4.6637 -10.716 -0 0 -0 0 0 -2.001e-07 -0 0 -0 -8.0105 -3.1402 0.64307 5.6346 5.3268 0.49472 -2.8306 3.3827 18.126 -0 0 -0 -0 0 3.7353e-07 -0 0 -0 
0 96.721 0 -0 0 -0 -7.8565 -3.1405 0.66421 -1.0208 -0.29938 -1.2897 -1.0208 -0.29938 -1.2897 -0.85699 -0.25303 -1.083 -0 0 -0 -0.52181 2.2796 -0.43935 3.4416 5.2769 1.5966 2.7955 -1.6786 2.9595 -0 0 -0 7.5627 3.4285 1.8522 0.81427 -0.039664 -0.41065 0.051125 -3.4291 0.25023 0.362 4.7529 -2.0853 -0.40518 4.4922 -3.17 -7.8565 -3.1405 0.66421 4.6136 1.03 3.5979 -2.4239 4.7167 -10.762 -0 0 -0 -4.266e-07 -0.083929 3.8655e-07 -0 0 -0 -7.8565 -3.1405 0.66421 5.4685 5.2983 0.49401 -2.8127 3.4247 18.093 -0 0 -0 -4.2689e-07 1.7891e-15 -4.8025e-07 -0 0 -0 
0 96.711 0 -0 0 -0 -7.7288 -3.1022 0.64442 -1.0574 -0.36023 -1.2394 -1.0574 -0.36023 -1.2394 -0.88773 -0.30413 -1.0407 -0 0 -0 -0.52551 2.4422 -0.48927 3.4422 5.1584 1.5301 2.8108 -1.6418 2.9943 -0 0 -0 7.5825 3.5767 1.8155 0.76652 -0.069336 -0.4263 0.056318 -3.4073 0.1922 0.38782 4.7589 -2.1069 -0.41355 4.4469 -3.1486 -7.7288 -3.1022 0.64442 4.5302 1.071 3.6868 -2.4807 4.7209 -10.821 -0 0 -0 2.698e-11 -0.15451 2.001e-08 -0 0 -0 -7.7288 -3.1022 0.64442 5.2782 5.2791 0.61613 -2.7562 3.4125 17.96 -0 0 -0 0 0 -7.7373e-07 -0 0 -0 
0 96.71 0 -0 0 -0 -7.7555 -3.1093 0.62025 -0.99615 -0.3905 -1.2091 -0.99615 -0.3905 -1.2091 -0.83622 -0.32944 -1.0152 -0 0 -0 -0.64142 2.5957 -0.5197 3.4359 4.9656 1.5429 2.7815 -1.5977 3.0038 -0 0 -0 7.4741 3.6782 1.8113 0.75649 -0.062504 -0.43148 0.033999 -3.4202 0.21732 0.2986 4.6578 -2.0874 -0.45513 4.3224 -3.1037 -7.7555 -3.1093 0.62025 4.5696 1.0987 3.7421 -2.4977 4.7721 -10.84 -0 0 -0 -2.3358e-10 -0.22294 -1.2006e-07 -0 0 -0 -7.7555 -3.1093 0.62025 5.2806 5.3438 0.7125 -2.7122 3.3465 17.822 -0 0 -0 -0 0 1.0672e-07 -0 0 -0 
0 96.715 0 -0 0 -0 -7.7654 -3.1081 0.58612 -0.9525 -0.40484 -1.1759 -0.9525 -0.40484 -1.1759 -0.79954 -0.34138 -0.98734 -0 0 -0 -0.74037 2.7114 -0.56318 3.4349 4.7558 1.5863 2.7649 -1.4703 2.9488 -0 0 -0 7.41 3.7054 1.7798 0.765 -0.099816 -0.44547 -0.0045409 -3.5203 0.20845 0.26101 4.6588 -2.1248 -0.45827 4.3123 -3.1134 -7.7654 -3.1081 0.58612 4.62 1.165 3.8067 -2.5141 4.7062 -10.869 -0 0 -0 1.2977e-10 -0.22294 6.6701e-08 -0 0 -0 -7.7654 -3.1081 0.58612 5.3117 5.3936 0.76339 -2.7153 3.3047 17.758 -0 0 -0 0 0 -4.5357e-07 -0 0 -0 
0 96.724 0 -0 0 -0 -7.8314 -3.0911 0.54289 -0.88938 -0.42487 -1.1628 -0.88938 -0.42487 -1.1628 -0.7465 -0.35811 -0.97629 -0 0 -0 -0.85632 2.8322 -0.54174 3.3903 4.5995 1.6445 2.7983 -1.3885 2.8659 -0 0 -0 7.3584 3.7334 1.8074 0.75338 -0.15288 -0.47483 -0.044117 -3.5272 0.16904 0.21447 4.6852 -2.1437 -0.4522 4.3227 -3.1214 -7.8314 -3.0911 0.54289 4.7109 1.228 3.8809 -2.499 4.639 -10.913 -0 0 -0 -4.2768e-07 -0.23739 -3.8108e-07 -0 0 -0 -7.8314 -3.0911 0.54289 5.4358 5.3895 0.80274 -2.7734 3.2963 17.715 -0 0 -0 -0 0 1.0672e-07 -0 0 -0 
0 96.736 0 -0 0 -0 -7.8487 -3.0607 0.50621 -0.86323 -0.39264 -1.157 -0.86323 -0.39264 -1.157 -0.72458 -0.33099 -0.97148 -0 0 -0 -0.89784 2.7891 -0.49305 3.3949 4.5068 1.6954 2.7643 -1.3647 2.7775 -0 0 -0 7.3605 3.6218 1.8522 0.72364 -0.20248 -0.50137 -0.068701 -3.5143 0.18717 0.19588 4.653 -2.1413 -0.44979 4.318 -3.1144 -7.8487 -3.0607 0.50621 4.7379 1.2651 3.9102 -2.5443 4.6141 -10.922 -0 0 -0 -9.0348e-10 -0.26761 -3.8687e-07 -0 0 -0 -7.8487 -3.0607 0.50621 5.4964 5.3563 0.83959 -2.8054 3.2973 17.659 -0 0 -0 -0 0 1.8676e-07 -0 0 -0 
0 96.749 0 -0 0 -0 -7.9174 -3.0479 0.49121 -0.84704 -0.37404 -1.1818 -0.84704 -0.37404 -1.1818 -0.71099 -0.31537 -0.99234 -0 0 -0 -0.89948 2.7695 -0.3982 3.4207 4.5112 1.7418 2.6242 -1.3667 2.7191 -0 0 -0 7.3832 3.6151 1.9312 0.73246 -0.24363 -0.53104 -0.023066 -3.5221 0.1048 0.20898 4.6811 -2.0882 -0.42092 4.3614 -3.0822 -7.9174 -3.0479 0.49121 4.7811 1.2746 3.8858 -2.494 4.5912 -10.905 -0 0 -0 7.46e-10 -0.27268 3.135e-07 -0 0 -0 -7.9174 -3.0479 0.49121 5.6185 5.3767 0.81567 -2.8494 3.2548 17.623 -0 0 -0 0 0 -7.2037e-07 -0 0 -0 
0 96.763 0 -0 0 -0 -8.0388 -3.0154 0.50258 -0.78801 -0.3579 -1.2113 -0.78801 -0.3579 -1.2113 -0.66142 -0.30175 -1.0172 -0 0 -0 -0.94315 2.8201 -0.34324 3.406 4.3788 1.7615 2.5838 -1.2974 2.676 -0 0 -0 7.3206 3.6275 1.9702 0.75048 -0.25851 -0.54476 0.032613 -3.5137 0.10072 0.18444 4.682 -2.0399 -0.39382 4.3762 -3.0591 -8.0388 -3.0154 0.50258 4.8823 1.2595 3.8416 -2.4884 4.6296 -10.887 -0 0 -0 -1.8623e-09 -0.32984 -6.4701e-07 -0 0 -0 -8.0388 -3.0154 0.50258 5.7743 5.4068 0.76424 -2.8678 3.1921 17.581 -0 0 -0 0 0 -6.4033e-07 -0 0 -0 
0 96.778 0 -0 0 -0 -8.1163 -2.9404 0.53368 -0.75886 -0.34217 -1.2306 -0.75886 -0.34217 -1.2306 -0.63695 -0.28852 -1.0334 -0 0 -0 -0.93442 2.8264 -0.3259 3.3733 4.3134 1.776 2.5599 -1.2901 2.6547 -0 0 -0 7.3055 3.6618 1.9677 0.78138 -0.26878 -0.5516 0.083376 -3.5151 0.12165 0.19028 4.6433 -2.0164 -0.36288 4.3505 -3.0518 -8.1163 -2.9404 0.53368 4.9452 1.1931 3.7881 -2.4794 4.6757 -10.861 -0 0 -0 6.3428e-10 -0.38917 1.8677e-07 -0 0 -0 -8.1163 -2.9404 0.53368 5.8629 5.4065 0.7109 -2.869 3.1223 17.531 -0 0 -0 0 0 -1.6008e-07 -0 0 -0 
0 96.795 0 -0 0 -0 -8.203 -2.8785 0.57129 -0.73528 -0.31635 -1.257 -0.73528 -0.31635 -1.257 -0.61717 -0.26682 -1.0556 -0 0 -0 -0.88558 2.789 -0.28021 3.3236 4.2904 1.7781 2.5943 -1.2775 2.618 -0 0 -0 7.3482 3.7161 1.9978 0.78036 -0.24648 -0.55795 0.13423 -3.5773 0.10624 0.21497 4.6421 -1.988 -0.31664 4.3705 -3.0457 -8.203 -2.8785 0.57129 5.0317 1.1222 3.7473 -2.5144 4.6588 -10.854 -0 0 -0 -4.2752e-07 -0.36045 -2.0145e-07 -0 0 -0 -8.203 -2.8785 0.57129 5.9187 5.4047 0.66481 -2.8482 3.0916 17.504 -0 0 -0 -0 0 6.4033e-07 -0 0 -0 
